<svg viewBox="0 0 500 500" xmlns="http://www.w3.org/2000/svg"><path d="M249.648 494.381H39.383c-20.536 0-33.272-12.096-32.864-31.385.151-7.779.838-15.537 2.061-23.22 6.32-38.501 24.521-70.334 54.779-94.875 23.607-19.153 50.831-31.424 81.127-32.163a5704.623 5704.623 0 01197.102-1.38c39.221.368 74.73 13.106 103.917 40.545a145.844 145.844 0 0147.117 99.484c.292 4.354.972 8.73.855 13.066-.466 18.22-12.445 29.675-31.365 29.908-16.743.194-33.467 0-50.209 0zM113.101 142.55C116.309 64.515 169.337 5.906 250.018 5.555c79.24-.35 137.054 57.112 136.898 136.995-.156 79.882-57.813 136.645-136.529 136.645S116.718 222.588 113.101 142.55z" fill="#1e90ff"/></svg>