<?xml version="1.0" encoding="utf-8"?>
<svg viewBox="0 0 500 500" xmlns="http://www.w3.org/2000/svg">
  <path d="M 250 280.543 C 325.88 280.543 387.443 218.981 387.443 143.101 C 387.443 67.221 325.88 5.658 250 5.658 C 174.12 5.658 112.557 67.221 112.557 143.101 C 112.557 218.981 174.12 280.543 250 280.543 Z M 372.171 311.086 L 319.581 311.086 C 298.391 320.821 274.816 326.357 250 326.357 C 225.184 326.357 201.704 320.821 180.419 311.086 L 127.829 311.086 C 60.349 311.086 5.658 365.776 5.658 433.256 L 5.658 448.528 C 5.658 473.821 26.179 494.342 51.472 494.342 L 448.528 494.342 C 473.821 494.342 494.342 473.821 494.342 448.528 L 494.342 433.256 C 494.342 365.776 439.651 311.086 372.171 311.086 Z" style="fill: rgb(30, 144, 255);"/>
</svg>