<svg viewBox="0 0 500 500" xmlns="http://www.w3.org/2000/svg"><path d="M5.709 250.205C6.234 116.735 111.282 6.177 249.679 5.846c136.935-.349 244.709 108.826 244.611 244.28-.096 135.458-107.462 243.99-244.164 244.029-136.372.04-243.405-108.435-244.417-243.95zm366.498-101.036c.623-16.995-13.374-25.737-28.09-19.061-45.515 20.678-90.954 41.506-136.158 62.844a30.443 30.443 0 00-13.861 13.062c-21.863 46.003-43.122 92.296-64.244 138.61-4.535 9.927-1.947 18.416 6.387 24.511 7.298 5.352 14.775 3.368 22.057 0a96184.046 96184.046 0 00131.055-59.885 39.08 39.08 0 0020.052-20.09c20.039-43.917 40.105-87.827 60.195-131.717a56.255 56.255 0 002.647-8.274z" fill="#1e90ff"/><path d="M280.04 249.776c0 17.521-12.985 30.584-30.233 30.409-16.667.144-30.163-13.493-29.844-30.157-.1-23.123 24.875-37.681 44.947-26.206a30.048 30.048 0 0115.13 25.954z" fill="#1e90ff"/></svg>