<?xml version="1.0" encoding="utf-8"?>
<svg viewBox="0 0 500 500" xmlns="http://www.w3.org/2000/svg">
  <path d="M 227.695 227.685 C 215.369 240.01 215.369 259.988 227.695 272.304 C 240.012 284.63 259.998 284.63 272.315 272.304 C 284.641 259.978 284.641 240.001 272.315 227.685 C 259.988 215.368 240.012 215.368 227.695 227.685 Z M 250 5.454 C 114.937 5.454 5.454 114.938 5.454 249.999 C 5.454 385.062 114.937 494.545 250 494.545 C 385.063 494.545 494.546 385.062 494.546 249.999 C 494.546 114.938 385.063 5.454 250 5.454 Z M 374.383 151.441 L 309.332 293.781 C 306.185 300.665 300.666 306.185 293.782 309.331 L 151.452 374.382 C 135.034 381.886 118.113 364.965 125.617 348.547 L 190.678 206.208 C 193.825 199.325 199.344 193.804 206.228 190.658 L 348.558 125.606 C 364.976 118.112 381.887 135.023 374.383 151.441 Z" style="fill: rgb(176, 196, 222);"/>
</svg>