<?xml version="1.0" encoding="utf-8"?>
<svg viewBox="0 0 639.897 500" xmlns="http://www.w3.org/2000/svg">
  <path d="M 311.614 132.402 L 110.422 298.107 L 110.422 476.951 C 110.422 486.593 118.24 494.411 127.881 494.411 L 250.167 494.095 C 259.775 494.047 267.539 486.243 267.539 476.635 L 267.539 372.192 C 267.539 362.549 275.357 354.732 284.999 354.732 L 354.838 354.732 C 364.482 354.732 372.299 362.549 372.299 372.192 L 372.299 476.558 C 372.269 486.223 380.094 494.072 389.758 494.072 L 511.999 494.411 C 521.642 494.411 529.46 486.593 529.46 476.951 L 529.46 297.987 L 328.31 132.402 C 323.438 128.475 316.486 128.475 311.614 132.402 Z M 629.416 245.03 L 538.189 169.832 L 538.189 18.684 C 538.189 11.451 532.327 5.589 525.095 5.589 L 463.985 5.589 C 456.753 5.589 450.89 11.451 450.89 18.684 L 450.89 97.92 L 353.191 17.539 C 333.855 1.626 305.962 1.626 286.625 17.539 L 10.398 245.03 C 4.822 249.639 4.04 257.898 8.653 263.472 L 36.48 297.301 C 41.08 302.894 49.348 303.69 54.932 299.079 L 311.614 87.662 C 316.486 83.734 323.438 83.734 328.31 87.662 L 585.003 299.079 C 590.578 303.691 598.836 302.909 603.445 297.332 L 631.273 263.505 C 635.882 257.896 635.051 249.608 629.416 245.03 Z" style="fill-rule: nonzero; fill: rgb(30, 143, 255);"/>
</svg>