<svg viewBox="0 0 560 500" xmlns="http://www.w3.org/2000/svg"><path d="M66.976 280.375c-10.509 0-20.125.253-29.74 0-20.94-.641-33.139-14.685-30.827-35.199.913-8.235 5.826-14.179 11.655-19.425l72.728-63.637c55.271-48.29 110.543-96.57 165.814-144.834 17.676-15.444 29.76-15.54 47.32-.252 79.243 69.076 158.479 138.163 237.707 207.266 15.791 13.715 15.015 33.49 4.971 45.184a26.733 26.733 0 01-19.619 9.557c-11.072.602-22.164 1.048-34.091 1.612v8.974c0 56.45.116 112.899-.156 169.349a49.57 49.57 0 01-3.69 19.678c-4.972 10.976-14.978 15.541-26.71 15.541-29.798.136-59.597.33-89.355 0-19.29-.272-30.149-12.199-30.247-32.382-.154-28.341 0-56.702 0-85.044 0-11.111-2.116-21.542-12.14-27.953a32.316 32.316 0 00-15.326-5.672c-20.805-.679-41.687.291-62.491-.679-22.631-1.05-34.053 17.113-33.936 34.051.175 27.604.369 55.246-.195 82.85a50.879 50.879 0 01-4.933 21.367c-5.206 10.256-15.541 13.287-26.516 13.345-29.545.156-59.11.311-88.677 0-20.803-.252-31.468-12.044-31.507-34.208-.103-56.45-.103-112.899 0-169.349z" fill="#1e90ff"/></svg>