<?xml version="1.0" encoding="utf-8"?>
<svg viewBox="0 0 438 500" xmlns="http://www.w3.org/2000/svg">
  <path d="M 432.799 349.264 L 432.799 28.565 C 432.799 15.871 422.587 5.658 409.892 5.658 L 96.829 5.658 C 46.243 5.658 5.201 46.7 5.201 97.286 L 5.201 402.714 C 5.201 453.3 46.243 494.342 96.829 494.342 L 409.892 494.342 C 422.587 494.342 432.799 484.129 432.799 471.435 L 432.799 456.164 C 432.799 449.005 429.459 442.515 424.305 438.315 C 420.296 423.616 420.296 381.716 424.305 367.017 C 429.459 362.913 432.799 356.422 432.799 349.264 Z M 127.372 133.556 C 127.372 130.406 129.949 127.829 133.099 127.829 L 335.444 127.829 C 338.594 127.829 341.171 130.406 341.171 133.556 L 341.171 152.645 C 341.171 155.795 338.594 158.372 335.444 158.372 L 133.099 158.372 C 129.949 158.372 127.372 155.795 127.372 152.645 L 127.372 133.556 Z M 127.372 194.641 C 127.372 191.492 129.949 188.914 133.099 188.914 L 335.444 188.914 C 338.594 188.914 341.171 191.492 341.171 194.641 L 341.171 213.73 C 341.171 216.88 338.594 219.457 335.444 219.457 L 133.099 219.457 C 129.949 219.457 127.372 216.88 127.372 213.73 L 127.372 194.641 Z M 369.232 433.256 L 96.829 433.256 C 79.935 433.256 66.286 419.608 66.286 402.714 C 66.286 385.915 80.031 372.171 96.829 372.171 L 369.232 372.171 C 367.419 388.492 367.419 416.935 369.232 433.256 Z" style="fill: rgb(30, 144, 255);"/>
</svg>