<?xml version="1.0" encoding="utf-8"?>
<svg viewBox="0 0 728.843 500" xmlns="http://www.w3.org/2000/svg">
  <path d="M 489.997 65.836 L 509.234 383.095 L 495.242 382.744 C 449.07 381.695 403.948 393.937 364.421 418.421 C 324.895 393.937 279.773 382.744 233.598 382.744 C 175.534 382.744 129.012 396.386 76.195 418.074 L 116.071 88.921 C 152.449 73.88 194.423 65.836 233.6 65.836 C 286.07 65.836 327.693 82.626 364.422 120.053 C 399.751 84.025 439.626 66.885 489.997 65.836 Z M 722.606 494.677 C 690.077 494.677 662.093 488.032 632.71 474.741 C 588.987 454.804 543.515 442.909 495.244 442.909 C 445.573 442.909 399.751 459.35 364.422 494.677 C 329.093 459.349 283.271 442.909 233.6 442.909 C 185.329 442.909 139.857 454.804 96.134 474.741 C 67.801 487.332 39.117 494.677 7.987 494.677 L 6.238 494.677 L 60.456 49.747 C 110.476 21.414 171.338 5.323 229.053 5.323 C 276.274 5.323 324.896 15.117 364.422 42.401 C 403.948 15.117 452.57 5.323 499.791 5.323 C 557.506 5.323 618.368 21.414 668.388 49.747 L 722.606 494.677 Z M 667.34 437.66 L 623.966 80.527 C 584.79 62.688 538.268 53.243 495.244 53.243 C 446.272 53.243 400.451 68.633 364.422 102.563 C 328.393 68.633 282.573 53.243 233.6 53.243 C 190.576 53.243 144.054 62.688 104.878 80.527 L 61.504 437.66 C 121.668 412.828 167.141 394.988 233.6 394.988 C 281.521 394.988 323.846 407.23 364.422 432.765 C 404.998 407.23 447.322 394.988 495.244 394.988 C 561.703 394.988 607.175 412.828 667.34 437.66 Z" style="fill: rgb(176, 196, 222);"/>
</svg>