<svg viewBox="0 0 439 500" xmlns="http://www.w3.org/2000/svg"><path d="M5.084 249.643V101.794c0-19.862 3.894-38.691 15.228-55.282 15.577-22.841 36.997-36.704 64.9-39.743a268.72 268.72 0 0129.208-1.304c89.57-.091 179.143-.091 268.714 0 17.524 0 33.297 5.043 42.449 20.699a57.36 57.36 0 017.944 27.358c.564 90.311.37 180.622.292 270.933a49.347 49.347 0 01-12.268 33.433 11.835 11.835 0 00-2.804 7.05c-.194 23.366-.233 46.616 0 69.924a10.949 10.949 0 003.408 7.244c9.737 8.47 13.631 18.966 10.223 31.31-3.407 12.346-12.52 19.161-25.314 20.699a72.43 72.43 0 01-8.722.487H101.198c-36.451 0-65.542-14.312-84.255-46.733-9.016-15.577-11.859-32.654-11.839-50.413.039-49.251.03-98.523-.02-147.813zm367.67 122.577H100.537a51.05 51.05 0 00-9.445.624 28.835 28.835 0 00-21.906 16.259c-8.763 18.225 1.013 44.961 30.162 44.786 89.046-.39 178.072-.138 267.117-.157 2.065 0 4.148-.35 6.387-.544zM234.737 158.398h43.053c15.812 0 31.622.234 47.434 0 12.463-.253 19.588-10.009 15.85-20.952-2.297-6.717-8.412-9.95-19.258-9.95H145.964a32.13 32.13 0 00-5.841.272c-10.044 1.728-15.652 12.578-11.255 21.771 3.174 6.912 9.015 8.956 16.103 8.956 29.922-.09 59.843-.122 89.766-.097zm-.72 61.201h44.532c15.578 0 31.156.233 46.733 0 12.463-.253 19.588-10.009 15.85-20.952-2.297-6.719-8.412-9.95-19.257-9.95H146.023a32.036 32.036 0 00-5.841.272c-10.045 1.728-15.653 12.578-11.256 21.77 3.175 6.913 9.016 8.957 16.104 8.957 29.647-.092 59.312-.122 88.987-.097z" fill="#1e90ff"/></svg>