<svg viewBox="0 0 561 500" xmlns="http://www.w3.org/2000/svg"><path d="M75.854 50.522c-16.214 0-32.428.213-48.621 0-12.19-.237-22.01-10.074-22.228-22.265-.252-13.072 8.283-22.44 22.169-22.711 22.537-.465 45.092-.427 67.628 0 14.178.252 22.051 8.049 24.049 22.246.33 2.404.738 4.789 1.28 8.183h398.905c9.038 0 17.455 1.513 24.418 7.506 10.472 8.941 12.568 20.733 9.096 33.107a21142.48 21142.48 0 01-51.648 180.097c-4.733 16.251-15.787 23.272-34.25 23.272H167.376c2.891 15.167 5.527 29.558 8.534 43.87.233 1.106 2.89 2.211 4.519 2.405 3.382.232 6.776.276 10.163.137h274.159c8.475 0 16.504.892 22.322 8.125 11.172 13.849 4.868 32.311-12.489 36.035a51.58 51.58 0 01-10.783 1.048H163.459c-19.667 0-26.648-6.032-30.392-25.62A144450.643 144450.643 0 0077.638 57.601c-.407-2.134-1.047-4.209-1.784-7.079zM216.037 446.846c.368 27.987-20.927 45.907-44.607 46.548-23.681.639-43.852-20.811-44.239-45.714-.369-23.971 20.733-45.421 44.607-45.246 24.497.011 44.327 19.917 44.239 44.412zM490.855 446.614c.331 25.542-19.646 46.701-44.374 47.012-23.466.272-43.929-20.714-44.471-45.655-.543-23.99 20.326-45.402 44.297-45.46 24.514-.204 44.508 19.588 44.548 44.103z" fill="#1e90ff"/></svg>