<?xml version="1.0" encoding="utf-8"?>
<svg viewBox="0 0 561.313 500" xmlns="http://www.w3.org/2000/svg">
  <path d="M 509.841 293.254 L 554.961 94.726 C 558.219 80.392 547.324 66.743 532.624 66.743 L 157.729 66.743 L 148.981 23.973 C 146.801 13.313 137.42 5.658 126.538 5.658 L 28.678 5.658 C 16.028 5.658 5.772 15.912 5.772 28.564 L 5.772 43.835 C 5.772 56.487 16.028 66.743 28.678 66.743 L 95.379 66.743 L 162.428 394.537 C 146.387 403.763 135.577 421.059 135.577 440.891 C 135.577 470.41 159.508 494.341 189.028 494.341 C 218.548 494.341 242.478 470.41 242.478 440.891 C 242.478 425.932 236.324 412.415 226.42 402.713 L 426.519 402.713 C 416.616 412.415 410.463 425.932 410.463 440.891 C 410.463 470.41 434.393 494.341 463.912 494.341 C 493.432 494.341 517.363 470.41 517.363 440.891 C 517.363 419.729 505.06 401.441 487.222 392.782 L 492.487 369.611 C 495.745 355.278 484.849 341.627 470.15 341.627 L 213.955 341.627 L 207.709 311.085 L 487.504 311.085 C 498.2 311.085 507.471 303.684 509.841 293.254 Z" style="fill: rgb(176, 196, 222);"/>
</svg>